HIERARCHY
ROOT Hips
{
  OFFSET -4.35178 90.3298 111.633
  CHANNELS 6 Xposition Yposition Zposition Zrotation Xrotation Yrotation
  JOINT LeftUpLeg
  {
    OFFSET 0.103456 1.85784 10.5485
    CHANNELS 6 Xposition Yposition Zposition Zrotation Xrotation Yrotation
    JOINT LeftLeg
    {
      OFFSET 43.5 -4.2e-05 0
      CHANNELS 6 Xposition Yposition Zposition Zrotation Xrotation Yrotation
      JOINT LeftFoot
      {
        OFFSET 42.3722 1.9e-05 0
        CHANNELS 6 Xposition Yposition Zposition Zrotation Xrotation Yrotation
        JOINT LeftToe
        {
          OFFSET 17.3 0 0
          CHANNELS 6 Xposition Yposition Zposition Zrotation Xrotation Yrotation
          End Site
          {
            OFFSET 0 0 0
          }
        }
      }
    }
  }
  JOINT RightUpLeg
  {
    OFFSET 0.103456 1.85782 -10.5485
    CHANNELS 6 Xposition Yposition Zposition Zrotation Xrotation Yrotation
    JOINT RightLeg
    {
      OFFSET 43.5 -2.7e-05 0
      CHANNELS 6 Xposition Yposition Zposition Zrotation Xrotation Yrotation
      JOINT RightFoot
      {
        OFFSET 42.3723 0 0
        CHANNELS 6 Xposition Yposition Zposition Zrotation Xrotation Yrotation
        JOINT RightToe
        {
          OFFSET 17.3 0 1.7e-05
          CHANNELS 6 Xposition Yposition Zposition Zrotation Xrotation Yrotation
          End Site
          {
            OFFSET 0 0 0
          }
        }
      }
    }
  }
  JOINT Spine
  {
    OFFSET 6.90197 -2.60373 0
    CHANNELS 6 Xposition Yposition Zposition Zrotation Xrotation Yrotation
    JOINT Spine1
    {
      OFFSET 12.5881 0 0
      CHANNELS 6 Xposition Yposition Zposition Zrotation Xrotation Yrotation
      JOINT Spine2
      {
        OFFSET 12.3432 -1.8e-05 0
        CHANNELS 6 Xposition Yposition Zposition Zrotation Xrotation Yrotation
        JOINT Neck
        {
          OFFSET 25.8329 2.3e-05 0
          CHANNELS 6 Xposition Yposition Zposition Zrotation Xrotation Yrotation
          JOINT Head
          {
            OFFSET 11.7666 0 0
            CHANNELS 6 Xposition Yposition Zposition Zrotation Xrotation Yrotation
            End Site
            {
              OFFSET 0 0 0
            }
          }
        }
        JOINT LeftShoulder
        {
          OFFSET 19.7459 -1.48035 6.0001
          CHANNELS 6 Xposition Yposition Zposition Zrotation Xrotation Yrotation
          JOINT LeftArm
          {
            OFFSET 11.2841 1.8e-05 -2e-05
            CHANNELS 6 Xposition Yposition Zposition Zrotation Xrotation Yrotation
            JOINT LeftForeArm
            {
              OFFSET 33 -1.3e-05 1.9e-05
              CHANNELS 6 Xposition Yposition Zposition Zrotation Xrotation Yrotation
              JOINT LeftHand
              {
                OFFSET 25.2 3.2e-05 1.1e-05
                CHANNELS 6 Xposition Yposition Zposition Zrotation Xrotation Yrotation
                End Site
                {
                  OFFSET 0 0 0
                }
              }
            }
          }
        }
        JOINT RightShoulder
        {
          OFFSET 19.7461 -1.48036 -6.00008
          CHANNELS 6 Xposition Yposition Zposition Zrotation Xrotation Yrotation
          JOINT RightArm
          {
            OFFSET 11.2841 0 0
            CHANNELS 6 Xposition Yposition Zposition Zrotation Xrotation Yrotation
            JOINT RightForeArm
            {
              OFFSET 33.0001 1.6e-05 0
              CHANNELS 6 Xposition Yposition Zposition Zrotation Xrotation Yrotation
              JOINT RightHand
              {
                OFFSET 25.1998 0.000123 0.000432
                CHANNELS 6 Xposition Yposition Zposition Zrotation Xrotation Yrotation
                End Site
                {
                  OFFSET 0 0 0
                }
              }
            }
          }
        }
      }
    }
  }
}
MOTION
Frames:	5
Frame Time:	0.0333333
16.823 91.3602 0.624711 1.88485 85.3646 90.4948 0.103456 1.85784 10.5485 8.56428 2.90733 -179.459 43.5 -4.2e-05 1e-05 -11.7075 -8.53267 -1.26147 42.3722 1.9e-05 -7.10543e-15 78.5277 2.02399 3.54575 17.3 -2.22045e-16 3e-06 21.4546 -1e-06 0.003093 0.103456 1.85782 -10.5485 4.06427 -8.45577 170.598 43.5 -2.7e-05 4e-06 -18.6078 10.1221 2.3503 42.3723 -1.77636e-15 1e-05 83.3397 7.66216 -3.55825 17.3 -6e-06 1.7e-05 21.4546 -1.9e-05 -0.003116 6.90197 -2.60373 -3e-06 7.35006 -0.042439 -0.12535 12.5881 1e-05 8e-06 4.68721 -0.0417788 -0.220301 12.3432 -1.8e-05 -5e-06 4.36999 0.0129095 -0.206456 25.8329 2.3e-05 7e-06 5.16612 -2.42791 -6.40173 11.7666 -8e-06 -6e-06 -21.0187 -6.62426 9.84283 19.7459 -1.48035 6.0001 176.304 -3.15851 -92.1491 11.2841 1.8e-05 -2e-05 7.45275 -18.3129 22.5426 33 -1.3e-05 1.9e-05 -21.7844 3.32181 -18.7724 25.2 3.2e-05 1.1e-05 10.9123 31.0474 -3.1471 19.7461 -1.48036 -6.00008 178.534 7.60948 88.654 11.2841 -3.55271e-15 -1e-06 -2.09325 8.01909 -15.1143 33.0001 1.6e-05 -1e-06 -26.982 -2.89716 17.1669 25.1998 0.000123 0.000432 7.83234 -14.6009 2.99848 
17.2445 91.3053 0.975275 3.92268 85.3428 88.5682 0.103456 1.85784 10.5485 9.14098 2.9829 -179.858 43.5 -4.2e-05 1e-05 -11.186 -8.669 -1.24303 42.3722 1.9e-05 0 78.8063 2.09087 3.37799 17.3 -6.66134e-16 3e-06 21.4546 -1e-06 0.003093 0.103456 1.85782 -10.5485 3.79929 -7.9924 170.195 43.5 -2.7e-05 4e-06 -19.5957 10.2067 2.34554 42.3723 0 1e-05 83.699 7.84644 -3.70202 17.3 -6e-06 1.7e-05 21.4546 -1.9e-05 -0.003116 6.90197 -2.60373 -3e-06 7.34337 -0.052994 -0.0949205 12.5881 1e-05 8e-06 4.67391 -0.0586922 -0.158091 12.3432 -1.8e-05 -5e-06 4.35672 -0.000318137 -0.143348 25.8329 2.3e-05 7e-06 5.10577 -2.35667 -6.42448 11.7666 -8e-06 -6e-06 -20.5475 -6.51626 9.88496 19.7459 -1.48035 6.0001 176.246 -3.14316 -92.0782 11.2841 1.8e-05 -2e-05 7.79539 -18.4848 22.8775 33 -1.3e-05 1.9e-05 -21.7424 3.20363 -18.7964 25.2 3.2e-05 1.1e-05 11.0167 30.9709 -3.16297 19.7461 -1.48036 -6.00008 178.63 7.64172 88.3817 11.2841 -7.10543e-15 -1e-06 -2.31905 7.64655 -14.9397 33.0001 1.6e-05 -1e-06 -28.2491 -3.07544 17.3631 25.1998 0.000123 0.000432 7.53117 -14.5746 2.93748 
17.7076 91.2356 1.31201 6.65707 85.3181 85.9911 0.103456 1.85784 10.5485 9.65312 3.03073 179.645 43.5 -4.2e-05 1e-05 -10.7477 -8.78703 -1.1901 42.3722 1.9e-05 0 79.0414 2.13577 3.24976 17.3 4.44089e-16 3e-06 21.4546 -1e-06 0.003093 0.103456 1.85782 -10.5485 2.94643 -7.12378 169.735 43.5 -2.7e-05 4e-06 -21.7463 10.381 2.31364 42.3723 3.55271e-15 1e-05 84.165 7.95214 -4.18177 17.3 -6e-06 1.7e-05 21.4546 -1.9e-05 -0.003116 6.90197 -2.60373 -3e-06 7.36766 -0.056138 -0.0915465 12.5881 1e-05 8e-06 4.72249 -0.0639702 -0.150837 12.3432 -1.8e-05 -5e-06 4.40534 -0.00439644 -0.135696 25.8329 2.3e-05 7e-06 4.98298 -2.24421 -6.41622 11.7666 -8e-06 -6e-06 -20.0533 -6.42303 9.99245 19.7459 -1.48035 6.0001 176.135 -3.15139 -92.0284 11.2841 1.8e-05 -2e-05 8.16517 -18.7485 23.2288 33 -1.3e-05 1.9e-05 -21.9833 3.08802 -18.7743 25.2 3.2e-05 1.1e-05 10.9433 30.8685 -3.14375 19.7461 -1.48036 -6.00008 178.953 7.65491 87.9253 11.2841 -3.55271e-15 -1e-06 -2.47345 6.8537 -14.869 33.0001 1.6e-05 -1e-06 -30.3051 -3.2739 17.592 25.1998 0.000123 0.000432 7.01719 -14.4761 2.84907 
18.1998 91.1874 1.61348 10.4928 85.2639 82.3528 0.103456 1.85784 10.5485 10.1674 3.22549 179.093 43.5 -4.2e-05 1e-05 -10.3345 -8.87743 -1.15475 42.3722 1.9e-05 0 79.1672 2.20957 3.08572 17.3 1.77636e-15 3e-06 21.4546 -1e-06 0.003093 0.103456 1.85782 -10.5485 1.4201 -5.98976 169.262 43.5 -2.7e-05 4e-06 -25.1644 10.615 2.34405 42.3723 3.55271e-15 1e-05 84.4715 7.61363 -5.15494 17.3 -6e-06 1.7e-05 21.4546 -1.9e-05 -0.003116 6.90197 -2.60373 -3e-06 7.43352 -0.0518415 -0.115999 12.5881 1e-05 8e-06 4.85419 -0.0574618 -0.200006 12.3432 -1.8e-05 -5e-06 4.53711 0.00103446 -0.184942 25.8329 2.3e-05 7e-06 4.85548 -2.0502 -6.43683 11.7666 -8e-06 -6e-06 -19.5633 -6.28721 10.2012 19.7459 -1.48035 6.0001 175.995 -3.11428 -92.0407 11.2841 1.8e-05 -2e-05 8.7487 -19.2516 23.9374 33 -1.3e-05 1.9e-05 -22.5157 2.90025 -18.7725 25.2 3.2e-05 1.1e-05 11.1295 30.7688 -3.4714 19.7461 -1.48036 -6.00008 179.406 7.5561 87.3444 11.2841 -3.55271e-15 -1e-06 -2.56906 6.26531 -15.295 33.0001 1.6e-05 -1e-06 -32.7464 -3.62686 17.933 25.1998 0.000123 0.000432 6.03784 -14.304 2.79511 
18.6881 91.0881 1.87264 14.9917 85.1625 78.0067 0.103456 1.85784 10.5485 10.1677 3.42432 178.613 43.5 -4.2e-05 1e-05 -10.8847 -8.96107 -1.13678 42.3722 1.9e-05 7.10543e-15 79.6204 2.14669 2.94715 17.3 2.22045e-16 3e-06 21.4546 -1e-06 0.003093 0.103456 1.85782 -10.5485 -0.797476 -4.70919 168.684 43.5 -2.7e-05 4e-06 -29.8774 10.6797 2.74504 42.3723 0 1e-05 84.4694 7.04826 -6.3871 17.3 -6e-06 1.7e-05 21.4546 -1.9e-05 -0.003116 6.90197 -2.60373 -3e-06 7.5448 -0.0226953 -0.115904 12.5881 1e-05 8e-06 5.0762 0.0030442 -0.203643 12.3432 -1.8e-05 -5e-06 4.75819 0.0645641 -0.19199 25.8329 2.3e-05 7e-06 4.68194 -1.92763 -6.38057 11.7666 -8e-06 -6e-06 -19.0341 -6.18424 10.267 19.7459 -1.48035 6.0001 175.753 -3.03521 -92.165 11.2841 1.8e-05 -2e-05 9.90217 -20.4498 25.861 33 -1.3e-05 1.9e-05 -23.6245 2.64023 -18.7519 25.2 3.2e-05 1.1e-05 11.2498 30.5611 -4.07428 19.7461 -1.48036 -6.00008 -179.965 7.32952 86.5944 11.2841 7.10543e-15 -1e-06 -2.50989 5.42406 -15.9529 33.0001 1.6e-05 -1e-06 -35.9374 -3.76586 18.1603 25.1998 0.000123 0.000432 4.87568 -13.9494 2.69388 
